# xmcd CD database file
#
# Track frame offsets:
#	150
#	12362
#	33075
#	50897
#	64292
#	74312
#	87387
#	106080
#	120127
#	138900
#
# Disc length: 2102 seconds
#
# Revision: 0
# Processed by: cddbd v1.5.1PL0 Copyright (c) Steve Scherf et al.
# Submitted via: CDex 1.60beta1
#
DISCID=8008340a
DTITLE=Various Artist - Talbots: Making The Holidays Magical
DYEAR=1900
DGENRE=Jazz
TTITLE0=Ole Santa (Dinah Washington)
TTITLE1=Let It Snow, Let It Snow (Joe Williams)
TTITLE2=I've Got My Love To Keep Me Warm ((Billie Holiday)
TTITLE3=Sleigh Ride (Ella Fitzgerald)
TTITLE4=Boogie Woogie Santa Claus (Patti Page)
TTITLE5=Christmas In New Orleans (Louis Armstrong)
TTITLE6=Winter Wonderland (Shirley Horn)
TTITLE7=Santa Baby (Ronee Martin)
TTITLE8=Good King Wenceslas (Mel Torme)
TTITLE9=Merry Christmas Baby (Charles Brown)
EXTD=
EXTT0=
EXTT1=
EXTT2=
EXTT3=
EXTT4=
EXTT5=
EXTT6=
EXTT7=
EXTT8=
EXTT9=
PLAYORDER=
